<svg width="161" height="49" viewBox="0 0 161 49" fill="none" xmlns="http://www.w3.org/2000/svg">
<path d="M14.8708 4.99565C14.8708 4.99565 14.2851 5.01584 13.1138 5.05623L12.0839 13.0534H13.4167C16.1632 13.0534 17.7384 11.6398 18.1423 8.81247C18.2231 7.60078 18.0616 6.67182 17.6577 6.02558C17.2537 5.33895 16.3248 4.99565 14.8708 4.99565ZM10.3875 24.5039L11.7203 24.5645C13.3763 24.5645 14.6486 24.2615 15.5372 23.6557C16.4257 23.0499 16.9912 21.919 17.2335 20.263C17.5971 17.7184 16.2642 16.4461 13.235 16.4461H12.3868C12.1041 16.4461 11.8415 16.4664 11.5991 16.5067L10.3875 24.5039ZM8.20643 0.997064L15.2342 0.815308C18.5866 0.815308 20.9494 1.34037 22.3227 2.3905C23.6959 3.40025 24.1806 5.21779 23.7767 7.84311C23.5343 9.41834 23.0093 10.7512 22.2015 11.8417C21.3937 12.8919 20.5455 13.6795 19.657 14.2045C22.2822 14.9719 23.393 17.0924 22.9891 20.5658C22.5448 23.3932 21.4139 25.4732 19.5964 26.8061C17.8192 28.0986 15.1535 28.7448 11.5991 28.7448C10.1048 28.7448 8.69111 28.7044 7.35826 28.6237C6.06578 28.5428 5.05604 28.5025 4.32903 28.5025L8.20643 0.997064Z" fill="#16174F"/>
<path d="M36.7263 13.7804L39.271 13.9016C41.5731 13.9016 42.9464 12.4677 43.3907 9.60002C43.8754 6.65162 42.8252 5.1774 40.2403 5.1774C39.6344 5.1774 38.8468 5.21779 37.8775 5.29856L36.7263 13.7804ZM38.241 18.0819L36.1205 18.0213L34.6665 28.5025H29.1533L33.0308 0.997064C33.0308 0.997064 35.4945 0.936473 40.422 0.815308C43.936 0.815308 46.3593 1.48173 47.6922 2.8146C49.1058 4.14746 49.6107 6.44968 49.2068 9.72121C48.8837 11.9023 48.1769 13.6189 47.0863 14.871C45.9958 16.0826 44.8043 16.8904 43.5119 17.2943L47.3287 28.5025H41.1491L38.241 18.0819Z" fill="#16174F"/>
<path d="M68.4044 6.38909C68.1217 7.07572 67.7986 7.9441 67.4351 8.99423C67.0715 10.0444 66.6676 11.1753 66.2233 12.3869C65.7791 13.5583 65.3146 14.7901 64.83 16.0826C64.3857 17.3347 63.9212 18.5666 63.4365 19.7783H69.3738C69.293 18.5666 69.192 17.3347 69.0708 16.0826C68.9497 14.7901 68.8487 13.5583 68.768 12.3869C68.6872 11.1753 68.6063 10.0444 68.5256 8.99423C68.4448 7.9441 68.4044 7.07572 68.4044 6.38909ZM65.7993 0.99707H72.7665L76.4016 28.5025H70.2826L69.7372 23.7163H62.043L60.1043 28.5025H54.2882L65.7993 0.99707Z" fill="#16174F"/>
<path d="M84.9261 28.5025L81.1094 0.99707H87.1072L88.5006 19.96V24.0798L89.5306 19.96L96.3766 0.99707H102.375L90.8635 28.5025H84.9261Z" fill="#16174F"/>
<path d="M116.778 24.4432C118.434 24.4432 119.726 23.6153 120.655 21.9593C121.584 20.2629 122.25 17.8799 122.654 14.8103C123.098 11.7003 123.078 9.31724 122.593 7.6613C122.109 5.96494 121.059 5.11675 119.443 5.11675C117.868 5.11675 116.616 5.96494 115.687 7.6613C114.758 9.31724 114.071 11.7003 113.627 14.8103C113.183 17.8799 113.183 20.2629 113.627 21.9593C114.071 23.6153 115.121 24.4432 116.778 24.4432ZM120.11 0.512329C123.503 0.512329 125.946 1.66343 127.441 3.96565C128.935 6.26787 129.338 9.88279 128.652 14.8103C127.966 19.6975 126.551 23.2921 124.411 25.5943C122.271 27.8965 119.504 29.0477 116.111 29.0477C109.124 29.0477 106.296 24.3019 107.63 14.8103C108.315 9.88279 109.73 6.26787 111.87 3.96565C114.01 1.66343 116.758 0.512329 120.11 0.512329Z" fill="#16174F"/>
<path d="M86.5369 39.8093C86.8121 39.8093 87.0238 39.9364 87.172 40.1904C87.3414 40.4445 87.426 40.7939 87.426 41.2384C87.426 42.0853 87.225 42.7416 86.8227 43.2074C85.9547 44.2659 85.002 45.1763 83.9646 45.9385C82.9272 46.6795 81.9003 47.05 80.8841 47.05C79.2751 47.05 78.0472 46.1078 77.2003 44.2236C76.3111 45.3457 75.5277 46.0972 74.8503 46.4784C74.194 46.8595 73.4212 47.05 72.532 47.05C71.2405 47.05 70.1714 46.5736 69.3245 45.6209C68.4989 44.647 68.086 43.3873 68.086 41.8418C68.086 40.1481 68.4459 38.5814 69.1657 37.1418C69.8855 35.681 70.8701 34.4954 72.1192 33.585C73.3894 32.6535 74.8079 32.103 76.3746 31.9336C76.7769 27.8264 77.539 24.3225 78.6612 21.422C79.8044 18.5003 81.297 17.0396 83.1389 17.0396C84.0492 17.0396 84.8009 17.4524 85.3936 18.278C86.0076 19.1038 86.3146 20.3528 86.3146 22.0254C86.3146 24.3966 85.7324 27.1701 84.568 30.3458C83.4035 33.5215 81.8474 36.7818 79.8997 40.1269C79.9843 41.3549 80.1643 42.2335 80.4395 42.7627C80.736 43.2921 81.1064 43.5567 81.551 43.5567C82.1227 43.5567 82.7048 43.3026 83.2977 42.7946C83.8905 42.2864 84.6844 41.4396 85.6795 40.254C85.9335 39.9575 86.2193 39.8093 86.5369 39.8093ZM82.7895 20.1517C82.3873 20.1517 81.985 20.8716 81.5828 22.3112C81.1805 23.7297 80.8312 25.5928 80.5348 27.9005C80.2596 30.2081 80.0584 32.6217 79.9314 35.1411C82.3026 29.9753 83.4882 25.8257 83.4882 22.6923C83.4882 21.8878 83.4141 21.2632 83.2659 20.8186C83.1389 20.3741 82.9801 20.1517 82.7895 20.1517ZM73.6435 43.8425C74.0458 43.8425 74.4481 43.6837 74.8503 43.3662C75.2526 43.0274 75.7606 42.4134 76.3746 41.5243C76.1629 40.381 76.0571 39.1002 76.0571 37.6817C76.0571 37.1735 76.0782 36.3478 76.1206 35.2046C74.9561 35.5645 73.9823 36.3478 73.1989 37.5546C72.4367 38.7402 72.0557 40.0635 72.0557 41.5243C72.0557 43.0697 72.5849 43.8425 73.6435 43.8425Z" fill="#E8553A"/>
<path d="M88.7562 47.0499C87.4435 47.0499 86.3956 46.5735 85.6122 45.6208C84.8288 44.6681 84.4373 43.419 84.4373 41.8735C84.4373 40.1798 84.8288 38.5813 85.6122 37.0782C86.3956 35.5538 87.433 34.3365 88.7244 33.4261C90.0371 32.4946 91.4238 32.0288 92.8846 32.0288C93.3507 32.0288 93.6578 32.1241 93.8058 32.3146C93.975 32.484 94.1129 32.8016 94.2187 33.2673C94.6627 33.1826 95.1289 33.1403 95.6153 33.1403C96.6533 33.1403 97.1719 33.5108 97.1719 34.2518C97.1719 34.6964 97.0128 35.755 96.6956 37.4275C96.2083 39.8622 95.9647 41.5559 95.9647 42.5086C95.9647 42.8262 96.0391 43.0802 96.1872 43.2708C96.3563 43.4613 96.5687 43.5566 96.8225 43.5566C97.2243 43.5566 97.7116 43.3025 98.2835 42.7945C98.8554 42.2651 99.6277 41.4183 100.601 40.2539C100.856 39.9575 101.141 39.8092 101.459 39.8092C101.734 39.8092 101.946 39.9363 102.095 40.1903C102.264 40.4444 102.348 40.7938 102.348 41.2383C102.348 42.0852 102.147 42.7415 101.745 43.2073C100.877 44.2871 99.9559 45.1974 98.9822 45.9384C98.0076 46.6794 97.0661 47.0499 96.1559 47.0499C95.4571 47.0499 94.8108 46.817 94.2187 46.3512C93.6468 45.8643 93.2128 45.208 92.9167 44.3823C91.8154 46.1607 90.4287 47.0499 88.7562 47.0499ZM89.8994 43.8424C90.3652 43.8424 90.8098 43.5672 91.2333 43.0168C91.6567 42.4663 91.9637 41.7359 92.1542 40.8255L93.3296 34.9822C92.44 35.0034 91.6143 35.3421 90.8522 35.9985C90.1112 36.6336 89.5183 37.4804 89.0738 38.539C88.6291 39.5976 88.4068 40.7197 88.4068 41.9053C88.4068 42.5616 88.5339 43.0485 88.7879 43.3661C89.0632 43.6836 89.4336 43.8424 89.8994 43.8424Z" fill="#E8553A"/>
<path d="M114.249 39.8093C114.523 39.8093 114.736 39.9363 114.884 40.1904C115.053 40.4444 115.138 40.7938 115.138 41.2383C115.138 42.0852 114.936 42.7415 114.534 43.2073C113.624 44.3294 112.628 45.2504 111.549 45.9702C110.47 46.69 109.231 47.0499 107.834 47.0499C103.514 47.0499 101.355 44.0118 101.355 37.9356C101.355 37.0041 101.387 36.0619 101.45 35.1093H100.212C99.5762 35.1093 99.1422 34.9928 98.9096 34.7599C98.6981 34.527 98.5924 34.1566 98.5924 33.6484C98.5924 32.4628 99.0687 31.87 100.021 31.87H101.832C102.191 29.5412 102.742 27.4135 103.483 25.4869C104.224 23.5603 105.113 22.0253 106.15 20.8821C107.209 19.7388 108.341 19.1672 109.548 19.1672C110.437 19.1672 111.136 19.5589 111.645 20.3422C112.152 21.1255 112.407 22.1101 112.407 23.2956C112.407 26.5772 111.031 29.4353 108.278 31.87H111.835C112.173 31.87 112.417 31.9441 112.565 32.0924C112.713 32.2406 112.788 32.5158 112.788 32.918C112.788 34.3788 111.591 35.1093 109.199 35.1093H105.325C105.282 36.1678 105.261 36.9935 105.261 37.5864C105.261 39.7881 105.515 41.3337 106.023 42.2229C106.553 43.1121 107.379 43.5566 108.5 43.5566C109.41 43.5566 110.215 43.2814 110.914 42.7309C111.613 42.1805 112.438 41.3548 113.391 40.2539C113.645 39.9575 113.93 39.8093 114.249 39.8093ZM108.691 22.2159C108.373 22.2159 108.014 22.6181 107.611 23.4227C107.23 24.206 106.86 25.3069 106.5 26.7254C106.161 28.1227 105.875 29.6788 105.643 31.3937C106.891 30.3139 107.823 29.1071 108.437 27.7734C109.072 26.4184 109.389 25.1904 109.389 24.0895C109.389 22.8405 109.157 22.2159 108.691 22.2159Z" fill="#E8553A"/>
<path d="M124.238 40.762C124.514 40.762 124.725 40.8891 124.873 41.1431C125.043 41.3972 125.127 41.7466 125.127 42.1911C125.127 42.9533 124.948 43.6096 124.588 44.1601C123.995 45.0704 123.212 45.7797 122.237 46.2878C121.285 46.7959 120.142 47.0499 118.808 47.0499C116.776 47.0499 115.198 46.4466 114.077 45.2399C112.954 44.0119 112.393 42.3605 112.393 40.2857C112.393 38.8249 112.7 37.4699 113.314 36.2208C113.928 34.9506 114.775 33.9449 115.855 33.2039C116.955 32.4628 118.194 32.0924 119.57 32.0924C120.799 32.0924 121.782 32.4628 122.523 33.2039C123.264 33.9237 123.635 34.9082 123.635 36.1573C123.635 37.6181 123.105 38.8778 122.047 39.9364C121.01 40.9738 119.232 41.7994 116.712 42.4134C117.22 43.3873 118.078 43.8742 119.284 43.8742C120.152 43.8742 120.862 43.6731 121.412 43.2709C121.984 42.8686 122.64 42.1911 123.381 41.2384C123.635 40.9208 123.921 40.762 124.238 40.762ZM119.03 35.2046C118.247 35.2046 117.581 35.6597 117.03 36.5701C116.5 37.4805 116.235 38.5814 116.235 39.8728V39.9364C117.485 39.6399 118.47 39.1954 119.19 38.6026C119.909 38.0098 120.269 37.3217 120.269 36.5383C120.269 36.1361 120.152 35.8185 119.92 35.5856C119.708 35.3316 119.411 35.2046 119.03 35.2046Z" fill="#E8553A"/>
</svg>
