<svg width="125" height="28" viewBox="0 0 125 28" fill="none" xmlns="http://www.w3.org/2000/svg">
<g clip-path="url(#clip0_394_2979)">
<mask id="mask0_394_2979" style="mask-type:luminance" maskUnits="userSpaceOnUse" x="1" y="4" width="124" height="17">
<path d="M124.258 4.73102H1.11285V20.6207H124.258V4.73102Z" fill="white"/>
</mask>
<g mask="url(#mask0_394_2979)">
<path d="M33.1231 16.1845C33.1231 16.6762 33.0219 17.1163 32.8194 17.5049C32.6282 17.8937 32.364 18.2252 32.0266 18.4996C31.7004 18.7626 31.3123 18.9684 30.8625 19.117C30.4126 19.2541 29.9347 19.3227 29.4286 19.3227H23.7098V7.14722H29.8841C30.3002 7.14722 30.677 7.23867 31.0144 7.42157C31.3518 7.6045 31.6385 7.84457 31.8748 8.14184C32.1109 8.42765 32.2908 8.75922 32.4145 9.13646C32.5495 9.50232 32.617 9.87387 32.617 10.2511C32.617 10.8456 32.4652 11.4058 32.1615 11.9317C31.8691 12.4461 31.4473 12.8292 30.8963 13.0807C31.5823 13.2864 32.1221 13.6637 32.5158 14.2124C32.9206 14.7498 33.1231 15.4072 33.1231 16.1845ZM31.1831 15.8244C31.1831 15.573 31.1381 15.3329 31.0481 15.1042C30.9694 14.8755 30.8569 14.6755 30.7107 14.504C30.5758 14.3324 30.4071 14.1953 30.2046 14.0924C30.0022 13.9895 29.7829 13.9381 29.5467 13.9381H25.5992V17.6593H29.4286C29.676 17.6593 29.9066 17.6137 30.1203 17.5221C30.3339 17.4192 30.5195 17.2878 30.677 17.1277C30.8344 16.9562 30.9581 16.7619 31.0481 16.5447C31.1381 16.316 31.1831 16.0759 31.1831 15.8244ZM25.5992 8.81066V12.3947H29.0743C29.3106 12.3947 29.5241 12.349 29.7154 12.2575C29.9179 12.1661 30.0921 12.046 30.2384 11.8974C30.3958 11.7373 30.5139 11.5487 30.5927 11.3315C30.6826 11.1143 30.7276 10.8742 30.7276 10.6112C30.7276 10.0853 30.5813 9.65665 30.289 9.32509C29.9965 8.98213 29.6254 8.81066 29.1756 8.81066H25.5992Z" fill="#2B2430"/>
<path d="M44.286 17.625V19.3227H36.0704V7.14722H44.1341V8.84495H37.9598V12.309H43.3075V13.9038H37.9598V17.625H44.286Z" fill="#2B2430"/>
<path d="M54.0494 10.0107C53.9369 9.88493 53.7738 9.75345 53.5602 9.61626C53.3465 9.46763 53.0934 9.33045 52.8011 9.20466C52.5199 9.07893 52.2049 8.97604 51.8564 8.896C51.519 8.81596 51.1703 8.77597 50.8104 8.77597C50.0119 8.77597 49.4215 8.9246 49.0391 9.2218C48.668 9.51907 48.4825 9.93062 48.4825 10.4565C48.4825 10.7538 48.5387 10.9996 48.6512 11.1939C48.7748 11.3768 48.9604 11.5426 49.2078 11.6913C49.4552 11.8284 49.7646 11.9542 50.1356 12.0685C50.5068 12.1714 50.9397 12.2857 51.4346 12.4115C52.0419 12.5601 52.5873 12.7259 53.071 12.9088C53.5658 13.0917 53.9819 13.3146 54.3193 13.5776C54.6567 13.8405 54.9154 14.1664 55.0953 14.555C55.2865 14.9323 55.3821 15.3953 55.3821 15.9441C55.3821 16.5614 55.264 17.093 55.0279 17.5389C54.8029 17.9847 54.488 18.3507 54.0832 18.6364C53.6895 18.9108 53.2284 19.1166 52.6998 19.2537C52.1712 19.3796 51.6033 19.4424 50.996 19.4424C50.0851 19.4424 49.2021 19.3052 48.3475 19.0308C47.504 18.7451 46.7392 18.3335 46.0532 17.7961L46.9136 16.1498C47.0597 16.2985 47.2678 16.4643 47.5378 16.6472C47.8189 16.8301 48.1394 17.0016 48.4993 17.1616C48.8704 17.3103 49.2697 17.4418 49.697 17.5561C50.1244 17.6589 50.5686 17.7104 51.0298 17.7104C51.772 17.7104 52.3456 17.579 52.7504 17.316C53.1553 17.053 53.3577 16.6643 53.3577 16.1498C53.3577 15.8412 53.279 15.584 53.1216 15.3782C52.9753 15.1724 52.7617 14.9952 52.4806 14.8465C52.1994 14.6865 51.8564 14.5436 51.4515 14.4179C51.0466 14.2921 50.5855 14.1606 50.0682 14.0234C49.4721 13.8634 48.9491 13.6976 48.4993 13.5261C48.0607 13.3432 47.6951 13.126 47.4028 12.8745C47.1103 12.623 46.8854 12.3315 46.728 11.9999C46.5818 11.657 46.5087 11.2454 46.5087 10.7652C46.5087 10.1707 46.6211 9.6448 46.8461 9.18751C47.071 8.71883 47.3746 8.33006 47.757 8.02141C48.1506 7.7013 48.6117 7.46123 49.1404 7.30118C49.6689 7.14113 50.2425 7.0611 50.8611 7.0611C51.6708 7.0611 52.4187 7.19257 53.1047 7.45554C53.7907 7.71844 54.3924 8.04431 54.9098 8.43302L54.0494 10.0107Z" fill="#2B2430"/>
<path d="M66.9606 8.84495H62.9793V19.3227H61.073V8.84495H57.0749V7.14722H66.9606V8.84495Z" fill="#2B2430"/>
<path d="M69.5418 19.3227V7.14722H73.793C74.7609 7.14722 75.6044 7.30727 76.324 7.62741C77.055 7.94752 77.6621 8.3819 78.1461 8.93069C78.6406 9.47941 79.012 10.1254 79.2583 10.8685C79.5066 11.6002 79.6298 12.3832 79.6298 13.2178C79.6298 14.1438 79.4894 14.9841 79.2087 15.7387C78.9392 16.4819 78.5499 17.122 78.0441 17.6593C77.5383 18.1852 76.9252 18.5968 76.2055 18.894C75.4859 19.1798 74.6814 19.3227 73.793 19.3227H69.5418ZM77.7064 13.2178C77.7064 12.5776 77.6171 11.9889 77.437 11.4515C77.2682 10.9142 77.0159 10.4569 76.6776 10.0796C76.3399 9.69094 75.9301 9.38798 75.4461 9.17076C74.9628 8.95353 74.412 8.84495 73.793 8.84495H71.4314V17.625H73.793C74.4232 17.625 74.98 17.5165 75.464 17.2992C75.9586 17.0706 76.3684 16.7619 76.6941 16.3731C77.0318 15.9731 77.2847 15.5044 77.4542 14.967C77.623 14.4297 77.7064 13.8466 77.7064 13.2178Z" fill="#2B2430"/>
<path d="M85.6921 7.14722H87.3453L92.0685 19.3227H90.0783L88.8131 16.013H84.1905L82.9425 19.3227H80.9344L85.6921 7.14722ZM88.4416 14.5897L86.5183 9.35938L84.5282 14.5897H88.4416Z" fill="#2B2430"/>
<path d="M102.13 8.84495H98.1486V19.3227H96.2418V8.84495H92.2443V7.14722H102.13V8.84495Z" fill="#2B2430"/>
<path d="M112.926 17.625V19.3227H104.711V7.14722H112.775V8.84495H106.6V12.309H111.948V13.9038H106.6V17.625H112.926Z" fill="#2B2430"/>
<path d="M122.691 10.0107C122.579 9.88493 122.416 9.75345 122.202 9.61626C121.988 9.46763 121.735 9.33045 121.443 9.20466C121.162 9.07893 120.848 8.97604 120.499 8.896C120.161 8.81596 119.812 8.77597 119.453 8.77597C118.654 8.77597 118.064 8.9246 117.681 9.2218C117.31 9.51907 117.125 9.93062 117.125 10.4565C117.125 10.7538 117.18 10.9996 117.294 11.1939C117.417 11.3768 117.602 11.5426 117.85 11.6913C118.098 11.8284 118.406 11.9542 118.778 12.0685C119.149 12.1714 119.582 12.2857 120.077 12.4115C120.684 12.5601 121.23 12.7259 121.713 12.9088C122.207 13.0917 122.624 13.3146 122.961 13.5776C123.299 13.8405 123.557 14.1664 123.737 14.555C123.928 14.9323 124.024 15.3953 124.024 15.9441C124.024 16.5614 123.906 17.093 123.67 17.5389C123.445 17.9847 123.13 18.3507 122.725 18.6364C122.332 18.9108 121.87 19.1166 121.342 19.2537C120.814 19.3796 120.246 19.4424 119.638 19.4424C118.727 19.4424 117.844 19.3052 116.99 19.0308C116.146 18.7451 115.381 18.3335 114.696 17.7961L115.556 16.1498C115.702 16.2985 115.91 16.4643 116.18 16.6472C116.461 16.8301 116.782 17.0016 117.141 17.1616C117.513 17.3103 117.912 17.4418 118.339 17.5561C118.766 17.6589 119.211 17.7104 119.672 17.7104C120.414 17.7104 120.988 17.579 121.392 17.316C121.798 17.053 122 16.6643 122 16.1498C122 15.8412 121.921 15.584 121.764 15.3782C121.617 15.1724 121.404 14.9952 121.123 14.8465C120.842 14.6865 120.499 14.5436 120.093 14.4179C119.689 14.2921 119.228 14.1606 118.71 14.0234C118.114 13.8634 117.591 13.6976 117.141 13.5261C116.703 13.3432 116.337 13.126 116.045 12.8745C115.753 12.623 115.527 12.3315 115.37 11.9999C115.224 11.657 115.151 11.2454 115.151 10.7652C115.151 10.1707 115.264 9.6448 115.488 9.18751C115.713 8.71883 116.016 8.33006 116.399 8.02141C116.792 7.7013 117.254 7.46123 117.783 7.30118C118.311 7.14113 118.884 7.0611 119.503 7.0611C120.313 7.0611 121.061 7.19257 121.747 7.45554C122.433 7.71844 123.034 8.04431 123.552 8.43302L122.691 10.0107Z" fill="#2B2430"/>
<path fill-rule="evenodd" clip-rule="evenodd" d="M4.26776 8.0378L6.85296 5.29218L9.43811 8.0378L6.85296 10.7834L4.26776 8.0378ZM13.0425 11.1439L15.6277 8.3983L18.213 11.1439L15.6277 13.8896L13.0425 11.1439ZM12.7028 11.5045L10.1177 14.2501L12.7028 16.9957L15.2881 14.2501L12.7028 11.5045ZM9.77788 14.611L7.1927 17.3566L9.77788 20.1022L12.3631 17.3566L9.77788 14.611ZM9.77788 8.3983L7.1927 11.1439L9.77788 13.8896L12.3631 11.1439L9.77788 8.3983ZM12.7028 5.29218L10.1177 8.0378L12.7028 10.7834L15.2881 8.0378L12.7028 5.29218ZM4.26776 14.2501L6.85296 11.5045L9.43811 14.2501L6.85296 16.9957L4.26776 14.2501ZM3.92803 8.3983L1.34283 11.1439L3.92803 13.8896L6.51323 11.1439L3.92803 8.3983Z" fill="#FF5252"/>
</g>
</g>
<defs>
<clipPath id="clip0_394_2979">
<rect width="123.807" height="26.4828" fill="white" transform="translate(0.448242 0.758606)"/>
</clipPath>
</defs>
</svg>
