<svg width="144" height="20" viewBox="0 0 144 20" fill="none" xmlns="http://www.w3.org/2000/svg">
<path d="M3.60006 19.6777C2.89694 19.6777 2.22962 19.6093 1.59811 19.4727V16.4747C1.80645 16.5137 2.02781 16.556 2.26218 16.6016C2.49655 16.6536 2.75046 16.6797 3.0239 16.6797C3.66191 16.6797 4.11765 16.4876 4.39109 16.1035C4.66451 15.7195 4.80123 15.0619 4.80123 14.1308V0.917969H8.67819V13.7988C8.67819 15.7324 8.25502 17.194 7.40866 18.1836C6.5623 19.1797 5.29278 19.6777 3.60006 19.6777Z" fill="#F39629"/>
<path d="M22.1134 9.63867C22.1134 11.4486 21.6251 12.8613 20.6486 13.8769C19.6784 14.8861 18.3178 15.3907 16.5664 15.3907C14.8868 15.3907 13.5489 14.8731 12.5528 13.8379C11.5632 12.8027 11.0684 11.403 11.0684 9.63867C11.0684 7.83528 11.5534 6.43555 12.5235 5.43945C13.5001 4.43685 14.8672 3.93555 16.6251 3.93555C17.7123 3.93555 18.6726 4.16667 19.5059 4.62891C20.3392 5.09115 20.9806 5.75521 21.4298 6.62109C21.8855 7.48047 22.1134 8.48633 22.1134 9.63867ZM14.9454 9.63867C14.9454 10.5892 15.0723 11.3151 15.3263 11.8164C15.5802 12.3112 16.0066 12.5586 16.6055 12.5586C17.198 12.5586 17.6147 12.3112 17.8555 11.8164C18.103 11.3151 18.2266 10.5892 18.2266 9.63867C18.2266 8.69467 18.103 7.98177 17.8555 7.5C17.6082 7.01823 17.185 6.77735 16.586 6.77735C16 6.77735 15.5802 7.01823 15.3263 7.5C15.0723 7.97527 14.9454 8.68815 14.9454 9.63867Z" fill="#F39629"/>
<path d="M28.1212 15.1953H24.3028V0H28.1212V15.1953Z" fill="#F39629"/>
<path d="M34.5853 15.1953H30.7669V0H34.5853V15.1953Z" fill="#F39629"/>
<path d="M35.895 4.13086H39.9184L41.7934 10.4785C41.8845 10.8106 41.9464 11.2109 41.9789 11.6797H42.057C42.1092 11.2305 42.1873 10.8366 42.2914 10.4981L44.2153 4.13086H48.1118L43.7368 15.8984C43.1769 17.3959 42.4868 18.4537 41.6665 19.0723C40.8526 19.6908 39.7882 20 38.4732 20C37.9653 20 37.4445 19.9447 36.9106 19.834V16.836C37.2557 16.914 37.6496 16.9531 38.0922 16.9531C38.4308 16.9531 38.727 16.888 38.9809 16.7579C39.2348 16.6276 39.4562 16.442 39.645 16.2012C39.8338 15.9668 40.0356 15.5795 40.2505 15.0391L35.895 4.13086Z" fill="#F39629"/>
<path d="M53.5196 10V15.1953H49.6622V0.917969H54.3399C58.2202 0.917969 60.1602 2.32421 60.1602 5.13672C60.1602 6.79036 59.353 8.06967 57.7383 8.97461L61.8986 15.1953H57.5235L54.4962 10H53.5196ZM53.5196 7.09961H54.2423C55.5899 7.09961 56.2638 6.50391 56.2638 5.31251C56.2638 4.32943 55.603 3.83789 54.2814 3.83789H53.5196V7.09961Z" fill="#F39629"/>
<path d="M73.5414 9.63867C73.5414 11.4486 73.0532 12.8613 72.0766 13.8769C71.1065 14.8861 69.7458 15.3907 67.9946 15.3907C66.3149 15.3907 64.977 14.8731 63.9809 13.8379C62.9913 12.8027 62.4965 11.403 62.4965 9.63867C62.4965 7.83528 62.9816 6.43555 63.9516 5.43945C64.9282 4.43685 66.2953 3.93555 68.0532 3.93555C69.1404 3.93555 70.1008 4.16667 70.9341 4.62891C71.7674 5.09115 72.4086 5.75521 72.8578 6.62109C73.3136 7.48047 73.5414 8.48633 73.5414 9.63867ZM66.3734 9.63867C66.3734 10.5892 66.5005 11.3151 66.7544 11.8164C67.0082 12.3112 67.4346 12.5586 68.0337 12.5586C68.6261 12.5586 69.0428 12.3112 69.2837 11.8164C69.531 11.3151 69.6548 10.5892 69.6548 9.63867C69.6548 8.69467 69.531 7.98177 69.2837 7.5C69.0362 7.01823 68.613 6.77735 68.0141 6.77735C67.4282 6.77735 67.0082 7.01823 66.7544 7.5C66.5005 7.97527 66.3734 8.68815 66.3734 9.63867Z" fill="#F39629"/>
<path d="M89.3118 15.1953V9.17969C89.3118 8.43099 89.2077 7.87109 88.9994 7.5C88.7975 7.1224 88.4752 6.9336 88.0326 6.9336C87.4466 6.9336 87.0169 7.18424 86.7435 7.68555C86.4701 8.18685 86.3333 8.97136 86.3333 10.0391V15.1953H82.5052V9.17969C82.5052 8.43099 82.4075 7.87109 82.2122 7.5C82.0169 7.1224 81.7011 6.9336 81.265 6.9336C80.6661 6.9336 80.2298 7.20052 79.9563 7.73437C79.683 8.26823 79.5462 9.14063 79.5462 10.3516V15.1953H75.7278V4.13085H78.6087L79.0872 5.49805H79.3118C79.6048 4.99024 80.0279 4.60287 80.5814 4.33593C81.1413 4.06901 81.7761 3.93555 82.4857 3.93555C84.0807 3.93555 85.2005 4.42057 85.845 5.39063H86.1478C86.4603 4.93489 86.8933 4.58008 87.4466 4.32617C88.0065 4.06576 88.6218 3.93555 89.2923 3.93555C90.6009 3.93555 91.5677 4.27083 92.1927 4.9414C92.8177 5.61197 93.1302 6.63085 93.1302 7.99805V15.1953H89.3118Z" fill="#F39629"/>
<path d="M102.946 15.1953L102.214 13.7305H102.136C101.622 14.3685 101.098 14.8047 100.564 15.0391C100.03 15.2735 99.3398 15.3907 98.4934 15.3907C97.4516 15.3907 96.6314 15.0781 96.0324 14.4531C95.4335 13.8281 95.134 12.9492 95.134 11.8164C95.134 10.638 95.5442 9.76237 96.3644 9.18945C97.1848 8.61003 98.373 8.28451 99.929 8.21289L101.775 8.15429V7.99805C101.775 7.08659 101.325 6.63085 100.427 6.63085C99.6196 6.63085 98.5943 6.90429 97.3508 7.45117L96.2472 4.93164C97.5363 4.26757 99.1639 3.93555 101.13 3.93555C102.549 3.93555 103.646 4.28711 104.421 4.99024C105.202 5.69336 105.593 6.67643 105.593 7.93945V15.1953H102.946ZM100.114 12.6953C100.577 12.6953 100.971 12.5488 101.296 12.2559C101.628 11.9629 101.794 11.582 101.794 11.1133V10.2539L100.915 10.293C99.6587 10.3385 99.0304 10.8008 99.0304 11.6797C99.0304 12.3568 99.3918 12.6953 100.114 12.6953Z" fill="#F39629"/>
<path d="M115.171 15.1953V9.16016C115.171 8.42448 115.064 7.87109 114.849 7.5C114.641 7.1224 114.302 6.9336 113.833 6.9336C113.189 6.9336 112.723 7.19076 112.437 7.70508C112.15 8.2194 112.007 9.10156 112.007 10.3516V15.1953H108.189V4.13085H111.07L111.548 5.49805H111.773C112.098 4.97721 112.548 4.58659 113.12 4.32617C113.7 4.06576 114.364 3.93555 115.113 3.93555C116.337 3.93555 117.287 4.29036 117.964 5C118.648 5.70964 118.99 6.70899 118.99 7.99805V15.1953H115.171Z" fill="#F39629"/>
<path d="M126.628 15.3907C124.818 15.3907 123.445 14.9024 122.507 13.9257C121.576 12.9492 121.111 11.5462 121.111 9.7168C121.111 7.88085 121.615 6.45833 122.624 5.44921C123.633 4.44011 125.069 3.93555 126.931 3.93555C128.213 3.93555 129.421 4.21549 130.554 4.77539L129.431 7.59765C128.969 7.39584 128.542 7.23633 128.152 7.11915C127.761 6.99544 127.354 6.9336 126.931 6.9336C126.312 6.9336 125.834 7.17448 125.495 7.65625C125.157 8.13803 124.988 8.81836 124.988 9.69727C124.988 11.4681 125.642 12.3535 126.95 12.3535C128.07 12.3535 129.144 12.028 130.173 11.3769V14.414C129.19 15.0651 128.008 15.3907 126.628 15.3907Z" fill="#F39629"/>
<path d="M137.708 15.3907C135.867 15.3907 134.434 14.9024 133.412 13.9257C132.397 12.9427 131.889 11.5462 131.889 9.73633C131.889 7.86784 132.361 6.43555 133.305 5.43945C134.248 4.43685 135.596 3.93555 137.347 3.93555C139.014 3.93555 140.3 4.37175 141.206 5.24415C142.116 6.11003 142.572 7.36003 142.572 8.99415V10.6934H135.746C135.772 11.3119 135.996 11.7969 136.42 12.1484C136.85 12.5 137.432 12.6758 138.168 12.6758C138.839 12.6758 139.454 12.6139 140.014 12.4902C140.58 12.36 141.192 12.1419 141.85 11.8359V14.5801C141.251 14.8861 140.632 15.0976 139.994 15.2148C139.356 15.332 138.595 15.3907 137.708 15.3907ZM137.484 6.5332C137.035 6.5332 136.658 6.67643 136.351 6.96289C136.052 7.24284 135.876 7.68555 135.824 8.29101H139.106C139.092 7.75716 138.939 7.33073 138.647 7.01172C138.36 6.69271 137.972 6.5332 137.484 6.5332Z" fill="#F39629"/>
</svg>
