<svg width="150" height="24" viewBox="0 0 150 24" fill="none" xmlns="http://www.w3.org/2000/svg">
<g clip-path="url(#clip0_394_2740)">
<path fill-rule="evenodd" clip-rule="evenodd" d="M4.70416 4.9282C4.70416 2.20643 6.91059 0 9.63236 0H22.8768C25.5987 0 27.8051 2.20643 27.8051 4.9282V18.1727C27.8051 20.8945 25.5987 23.101 22.8768 23.101H9.63236C6.91059 23.101 4.70416 20.8945 4.70416 18.1727V14.438L0.517242 11.4061L4.70416 8.37422V4.9282ZM22.7519 11.5505C22.7519 15.1387 19.843 18.0476 16.2548 18.0476C12.6665 18.0476 9.75764 15.1387 9.75764 11.5505C9.75764 7.96224 12.6665 5.05338 16.2548 5.05338C19.843 5.05338 22.7519 7.96224 22.7519 11.5505Z" fill="url(#paint0_linear_394_2740)"/>
<path fill-rule="evenodd" clip-rule="evenodd" d="M15.7456 8.69677C15.7456 9.99143 14.6961 11.0409 13.4014 11.0409C12.6501 11.0409 11.9812 10.6874 11.5522 10.1376C11.418 10.5851 11.3459 11.0594 11.3459 11.5505C11.3459 14.2616 13.5436 16.4594 16.2548 16.4594C18.9659 16.4594 21.1637 14.2616 21.1637 11.5505C21.1637 8.83941 18.9659 6.6416 16.2548 6.6416C15.7639 6.6416 15.2899 6.71366 14.8426 6.84777C15.3922 7.27677 15.7456 7.94551 15.7456 8.69677ZM18.1486 14.7611C18.7959 14.7611 19.3207 14.2363 19.3207 13.589C19.3207 12.9416 18.7959 12.4169 18.1486 12.4169C17.5012 12.4169 16.9765 12.9416 16.9765 13.589C16.9765 14.2363 17.5012 14.7611 18.1486 14.7611Z" fill="#303030"/>
<path fill-rule="evenodd" clip-rule="evenodd" d="M78.7961 0.988159H82.0393V8.42184C82.3123 8.27066 82.5994 8.13576 82.9007 8.01715C83.8199 7.65534 84.8417 7.47444 85.9664 7.47444C87.0812 7.47444 88.0933 7.65534 89.0026 8.01715C89.9218 8.37898 90.7041 8.89236 91.3496 9.5573C92.0048 10.2223 92.5083 11.0339 92.8604 11.9922C93.2123 12.9505 93.3884 14.0213 93.3884 15.2046C93.3884 16.3975 93.2123 17.4732 92.8604 18.4315C92.5083 19.3898 92.0048 20.2064 91.3496 20.8811C90.7041 21.5558 89.9218 22.0741 89.0026 22.4359C88.0933 22.7977 87.0812 22.9787 85.9664 22.9787C84.8417 22.9787 83.8199 22.7977 82.9007 22.4359C82.5169 22.2848 82.156 22.1064 81.8182 21.9008V22.9537H78.7961V0.988159ZM85.9664 20.1917C87.218 20.1917 88.1421 19.7712 88.7386 18.9302C89.3449 18.0893 89.6481 16.8571 89.6481 15.2339C89.6481 13.6106 89.3449 12.3735 88.7386 11.5228C88.1421 10.6721 87.218 10.2467 85.9664 10.2467C84.6951 10.2467 83.7514 10.677 83.1355 11.5375C82.5291 12.3883 82.226 13.6203 82.226 15.2339C82.226 16.8474 82.5291 18.0795 83.1355 18.9302C83.7514 19.7712 84.6951 20.1917 85.9664 20.1917ZM105.618 12.227C105.755 12.6378 105.824 13.0778 105.824 13.5471H98.9884C99.1548 12.4519 99.5361 11.6061 100.133 11.0096C100.739 10.4131 101.565 10.1148 102.611 10.1148C103.149 10.1148 103.619 10.2077 104.02 10.3935C104.43 10.5695 104.768 10.814 105.032 11.1269C105.296 11.4398 105.491 11.8065 105.618 12.227ZM99.3259 17.7422C99.1107 17.1751 98.9738 16.5053 98.9151 15.7327H108.229C108.562 15.7327 108.787 15.6398 108.904 15.4541C109.022 15.2585 109.08 14.8868 109.08 14.3393C109.08 13.2537 108.914 12.2906 108.581 11.4496C108.259 10.5989 107.809 9.885 107.232 9.30806C106.655 8.72134 105.966 8.2764 105.164 7.97326C104.362 7.67012 103.487 7.51855 102.538 7.51855C101.414 7.51855 100.402 7.71413 99.5019 8.10527C98.612 8.49642 97.8542 9.02936 97.2283 9.7041C96.6122 10.3691 96.1379 11.1562 95.8055 12.0656C95.473 12.9653 95.3068 13.9285 95.3068 14.9553C95.3068 16.2755 95.4975 17.4391 95.8789 18.4463C96.2602 19.4437 96.7833 20.2847 97.4483 20.9693C98.1133 21.6439 98.8955 22.1574 99.7952 22.5093C100.695 22.8516 101.668 23.0227 102.714 23.0227C103.242 23.0227 103.785 22.9836 104.342 22.9055C104.909 22.8272 105.462 22.6952 106 22.5093C106.547 22.3137 107.071 22.0596 107.569 21.7466C108.068 21.4239 108.518 21.0279 108.919 20.5585L107.877 19.2384C107.731 19.0135 107.506 18.9011 107.203 18.9011C106.978 18.9011 106.743 18.9695 106.499 19.1064C106.264 19.2433 105.985 19.3949 105.662 19.5611C105.35 19.7273 104.978 19.8789 104.548 20.0157C104.127 20.1527 103.624 20.2212 103.037 20.2212C102.45 20.2212 101.912 20.1331 101.423 19.9571C100.944 19.7713 100.529 19.4975 100.177 19.1357C99.8246 18.7641 99.5409 18.2996 99.3259 17.7422ZM128.18 7.85664V22.9062H131.803V11.8904C132.194 11.4406 132.616 11.0885 133.066 10.8343C133.525 10.5702 134.018 10.4382 134.546 10.4382C135.329 10.4382 135.92 10.668 136.321 11.1276C136.733 11.5872 136.938 12.3206 136.938 13.3279V22.9062H140.575V13.3279C140.575 12.8585 140.644 12.4429 140.78 12.0811C140.917 11.7192 141.103 11.421 141.338 11.1863C141.582 10.9418 141.862 10.756 142.174 10.6289C142.496 10.5018 142.844 10.4382 143.215 10.4382C144.028 10.4382 144.643 10.6827 145.063 11.1716C145.484 11.6508 145.694 12.3696 145.694 13.3279V22.9062H149.317V13.3279C149.317 12.4184 149.2 11.6117 148.966 10.9076C148.74 10.2035 148.408 9.60704 147.968 9.1181C147.528 8.62916 146.986 8.25757 146.34 8.00333C145.694 7.74908 144.956 7.62196 144.125 7.62196C143.646 7.62196 143.167 7.67574 142.687 7.78331C142.218 7.89088 141.773 8.05711 141.353 8.28202C140.933 8.50693 140.546 8.8003 140.194 9.16211C139.842 9.51414 139.548 9.93952 139.314 10.4382C139.01 9.58748 138.551 8.90786 137.935 8.39936C137.329 7.8811 136.552 7.62196 135.602 7.62196C135.154 7.62196 134.737 7.67574 134.356 7.78331C133.985 7.8811 133.632 8.01799 133.3 8.19401C132.977 8.37002 132.67 8.58028 132.376 8.82474C132.15 9.01891 131.932 9.22852 131.719 9.45354V7.87262H130.603C130.538 7.86197 130.469 7.85664 130.396 7.85664H128.18ZM115.318 22.436C116.228 22.7978 117.24 22.9787 118.355 22.9787C119.479 22.9787 120.501 22.7978 121.421 22.4359C121.777 22.2955 122.114 22.1323 122.431 21.9462V22.9533H125.527V17.2542C125.555 16.8308 125.546 16.3887 125.537 15.9315C125.532 15.6981 125.527 15.4602 125.527 15.2192C125.527 15.0933 125.527 14.9671 125.528 14.8407V14.8391C125.533 13.7683 125.539 12.6847 125.159 11.6758C124.796 10.7175 124.427 10.2468 123.782 9.57203C123.127 8.89729 122.34 8.37901 121.421 8.0172C120.501 7.65539 119.479 7.47449 118.355 7.47449C117.24 7.47449 116.228 7.65539 115.318 8.0172C114.399 8.37901 113.617 8.89729 112.971 9.57203C112.316 10.2468 111.813 11.0633 111.461 12.0216C111.109 12.9799 110.933 14.0556 110.933 15.2486C110.933 16.4318 111.109 17.5026 111.461 18.4609C111.813 19.4192 112.316 20.2309 112.971 20.8958C113.617 21.5607 114.399 22.0741 115.318 22.436ZM115.582 11.5229C116.179 10.6819 117.103 10.2614 118.355 10.2614C119.626 10.2614 120.57 10.6819 121.186 11.5229C121.792 12.3737 122.095 13.6057 122.095 15.2192C122.095 16.8327 121.792 18.0649 121.186 18.9156C120.57 19.7761 119.626 20.2064 118.355 20.2064C117.103 20.2064 116.179 19.781 115.582 18.9303C114.976 18.0795 114.673 16.8426 114.673 15.2192C114.673 13.596 114.976 12.3638 115.582 11.5229ZM36.931 22.955V1.01073H33.308V22.955H36.931ZM44.2958 22.955V7.75807H40.6581V22.955H44.2958ZM44.6038 4.25239C44.7309 3.97859 44.7945 3.68522 44.7945 3.3723C44.7945 3.04961 44.7309 2.74646 44.6038 2.46288C44.4766 2.1793 44.3055 1.93483 44.0903 1.72948C43.885 1.52412 43.6406 1.36277 43.357 1.24542C43.0735 1.1183 42.7702 1.05474 42.4475 1.05474C42.1347 1.05474 41.8364 1.1183 41.5528 1.24542C41.279 1.36277 41.0395 1.52412 40.834 1.72948C40.6287 1.93483 40.4625 2.1793 40.3354 2.46288C40.2181 2.74646 40.1594 3.04961 40.1594 3.3723C40.1594 3.68522 40.2181 3.97859 40.3354 4.25239C40.4625 4.5262 40.6287 4.76578 40.834 4.97113C41.0395 5.17648 41.279 5.34272 41.5528 5.46984C41.8364 5.58719 42.1347 5.64586 42.4475 5.64586C42.7702 5.64586 43.0735 5.58719 43.357 5.46984C43.6406 5.34272 43.885 5.17648 44.0903 4.97113C44.3055 4.76578 44.4766 4.5262 44.6038 4.25239ZM61.5574 7.91837L55.5874 22.9679H52.3018L46.3318 7.91837H49.3241C49.598 7.91837 49.8229 7.98193 49.9989 8.10906C50.1847 8.23619 50.3069 8.39753 50.3656 8.5931L53.2699 16.1119C53.4263 16.5813 53.5633 17.0409 53.6806 17.4907C53.798 17.9406 53.9006 18.3903 53.9887 18.8402C54.0865 18.3903 54.194 17.9406 54.3113 17.4907C54.4287 17.0409 54.5704 16.5813 54.7367 16.1119L57.6997 8.5931C57.7681 8.39753 57.8903 8.23619 58.0664 8.10906C58.2424 7.98193 58.4527 7.91837 58.6971 7.91837H61.5574ZM72.5201 12.2318C72.6571 12.6426 72.7256 13.0826 72.7256 13.5519H65.8901C66.0565 12.4567 66.4378 11.6109 67.0343 11.0144C67.6406 10.4179 68.4669 10.1196 69.5132 10.1196C70.051 10.1196 70.5205 10.2125 70.9214 10.3983C71.332 10.5743 71.6695 10.8188 71.9335 11.1317C72.1975 11.4447 72.3931 11.8114 72.5201 12.2318ZM66.2276 17.747C66.0124 17.1799 65.8755 16.5101 65.8168 15.7375H75.1311C75.4636 15.7375 75.6885 15.6446 75.8059 15.4589C75.9232 15.2633 75.9819 14.8916 75.9819 14.3441C75.9819 13.2587 75.8156 12.2954 75.4832 11.4544C75.1604 10.6037 74.7106 9.88984 74.1337 9.31289C73.5567 8.72616 72.8673 8.28124 72.0655 7.97809C71.2636 7.67495 70.3885 7.52338 69.4399 7.52338C68.3153 7.52338 67.3033 7.71895 66.4036 8.1101C65.5137 8.50126 64.7559 9.03419 64.13 9.70892C63.5139 10.3739 63.0397 11.1611 62.7073 12.0705C62.3747 12.9702 62.2085 13.9333 62.2085 14.9601C62.2085 16.2803 62.3992 17.4439 62.7806 18.4512C63.1619 19.4486 63.6851 20.2896 64.3501 20.9741C65.015 21.6488 65.7973 22.1622 66.6969 22.5141C67.5965 22.8565 68.5696 23.0276 69.6159 23.0276C70.1439 23.0276 70.6867 22.9885 71.2441 22.9103C71.8112 22.832 72.3638 22.7 72.9015 22.5141C73.4492 22.3187 73.9724 22.0644 74.471 21.7514C74.9697 21.4287 75.4196 21.0327 75.8205 20.5633L74.779 19.2432C74.6324 19.0183 74.4075 18.9059 74.1044 18.9059C73.8794 18.9059 73.6448 18.9743 73.4002 19.1112C73.1656 19.2481 72.8869 19.3997 72.5642 19.5659C72.2512 19.7322 71.8797 19.8837 71.4494 20.0207C71.0289 20.1575 70.5253 20.226 69.9386 20.226C69.3519 20.226 68.8141 20.138 68.3251 19.962C67.8459 19.7761 67.4303 19.5024 67.0783 19.1406C66.7263 18.7689 66.4427 18.3044 66.2276 17.747Z" fill="#303030"/>
</g>
<defs>
<linearGradient id="paint0_linear_394_2740" x1="7.15873" y1="23.101" x2="26.8667" y2="0.794185" gradientUnits="userSpaceOnUse">
<stop stop-color="#574DCC"/>
<stop offset="1" stop-color="#579AFF"/>
</linearGradient>
<clipPath id="clip0_394_2740">
<rect width="148.8" height="24" fill="white" transform="translate(0.517242)"/>
</clipPath>
</defs>
</svg>
