<svg width="162" height="15" viewBox="0 0 162 15" fill="none" xmlns="http://www.w3.org/2000/svg">
<path d="M2.09316 5.01422C3.15969 4.11806 4.75948 3.66998 6.89255 3.66998C9.02566 3.66998 10.6175 4.11806 11.6681 5.01422C12.7346 5.89615 13.2679 7.33996 13.2679 9.34565C13.2679 11.3514 12.7346 12.7952 11.6681 13.6771C10.6175 14.5591 9.02566 15 6.89255 15C4.75948 15 3.15969 14.5591 2.09316 13.6771C1.04254 12.7952 0.517242 11.3514 0.517242 9.34565C0.517242 7.33996 1.04254 5.89615 2.09316 5.01422ZM6.12847 10.754C6.27173 11.01 6.52643 11.138 6.89255 11.138C7.25867 11.138 7.51337 11.01 7.65663 10.754C7.7999 10.4979 7.87153 10.0285 7.87153 9.34565C7.87153 8.64865 7.7999 8.17211 7.65663 7.91607C7.51337 7.66002 7.25867 7.532 6.89255 7.532C6.52643 7.532 6.27173 7.66002 6.12847 7.91607C5.9852 8.17211 5.91357 8.64865 5.91357 9.34565C5.91357 10.0285 5.9852 10.4979 6.12847 10.754Z" fill="#FD815E"/>
<path d="M19.654 14.7227H14.3055V3.94736H19.654V4.9502C20.6569 4.09672 21.5006 3.66998 22.1851 3.66998V8.1081C21.6438 8.1081 20.9434 8.30013 20.0838 8.68425L19.654 8.87625V14.7227Z" fill="#FD815E"/>
<path d="M28.7792 3.66998C29.8776 3.66998 31.0953 3.81223 32.4325 4.09672L33.101 4.22474L32.9339 8.00141C31.2943 7.88762 30.1959 7.83072 29.6388 7.83072C29.0816 7.83072 28.6996 7.94452 28.4927 8.17211C28.3016 8.38548 28.2061 8.77665 28.2061 9.34565C28.2061 9.90045 28.3016 10.2845 28.4927 10.4979C28.6996 10.7113 29.0578 10.818 29.5672 10.818L32.9816 10.6686L33.1488 14.4026C31.6206 14.8009 30.1641 15 28.7792 15C26.4869 15 24.919 14.5804 24.0753 13.7412C23.2316 12.8877 22.8098 11.4083 22.8098 9.30295C22.8098 7.18349 23.2635 5.71834 24.1708 4.90753C25.0782 4.08249 26.6143 3.66998 28.7792 3.66998Z" fill="#FD815E"/>
<path d="M39.5442 14.7227H34.1957V0H39.5442V4.03272C40.6585 3.7909 41.5102 3.66999 42.0991 3.66999C43.8343 3.66999 45.0441 4.07539 45.7285 4.8862C46.4289 5.69701 46.7792 7.11949 46.7792 9.15366V14.7227H41.4306V9.64436C41.4306 8.40683 41.1281 7.78805 40.5232 7.78805L39.5442 7.91608V14.7227Z" fill="#FD815E"/>
<path d="M47.9999 14.7227V3.94737H53.3485V14.7227H47.9999ZM47.976 3.26458V0H53.3724V3.26458H47.976Z" fill="#FD815E"/>
<path d="M66.9652 0V14.7227H61.6883L61.6405 14.2532C60.765 14.7511 59.9293 15 59.1334 15C57.3824 15 56.1566 14.5235 55.4562 13.5705C54.7558 12.6032 54.4056 11.1949 54.4056 9.34566C54.4056 5.56188 56.1646 3.66999 59.6826 3.66999L61.6166 3.79801V0H66.9652ZM60.8526 7.53201C60.4228 7.53201 60.1362 7.68848 59.993 8.00142C59.8656 8.31437 59.802 8.76246 59.802 9.34566C59.802 9.91466 59.8736 10.3557 60.0169 10.6686C60.1601 10.9815 60.4466 11.138 60.8764 11.138L61.6166 11.074V7.59602C61.2664 7.55334 61.0117 7.53201 60.8526 7.53201Z" fill="#FD815E"/>
<path d="M73.6584 14.7227H68.3098V3.94736H73.6584V4.9502C74.6613 4.09672 75.5049 3.66998 76.1894 3.66998V8.1081C75.6482 8.1081 74.9478 8.30013 74.0882 8.68425L73.6584 8.87625V14.7227Z" fill="#FD815E"/>
<path d="M78.3661 5.01422C79.4326 4.11806 81.0325 3.66998 83.1656 3.66998C85.2987 3.66998 86.8905 4.11806 87.9411 5.01422C89.0077 5.89615 89.5409 7.33996 89.5409 9.34565C89.5409 11.3514 89.0077 12.7952 87.9411 13.6771C86.8905 14.5591 85.2987 15 83.1656 15C81.0325 15 79.4326 14.5591 78.3661 13.6771C77.3155 12.7952 76.7903 11.3514 76.7903 9.34565C76.7903 7.33996 77.3155 5.89615 78.3661 5.01422ZM82.4015 10.754C82.5448 11.01 82.7995 11.138 83.1656 11.138C83.5317 11.138 83.7863 11.01 83.9296 10.754C84.0729 10.4979 84.1446 10.0285 84.1446 9.34565C84.1446 8.64865 84.0729 8.17211 83.9296 7.91607C83.7863 7.66002 83.5317 7.532 83.1656 7.532C82.7995 7.532 82.5448 7.66002 82.4015 7.91607C82.2583 8.17211 82.1866 8.64865 82.1866 9.34565C82.1866 10.0285 82.2583 10.4979 82.4015 10.754Z" fill="#FD815E"/>
<path d="M95.927 14.7227H90.5785V3.94736H95.9032V4.50213C96.9538 3.94736 97.9805 3.66998 98.9829 3.66998C100.002 3.66998 100.838 3.99003 101.491 4.63015C102.621 3.99003 103.815 3.66998 105.072 3.66998C106.935 3.66998 108.208 4.11806 108.893 5.01422C109.577 5.89615 109.919 7.31863 109.919 9.28165V14.7227H104.571V9.85775C104.571 8.47794 104.308 7.78804 103.783 7.78804L102.756 7.91607C102.868 8.21479 102.923 8.83355 102.923 9.77235V14.7227H97.5746V9.85775C97.5746 8.47794 97.3199 7.78804 96.8105 7.78804L95.927 7.89473V14.7227Z" fill="#FD815E"/>
<path d="M122.845 7.42531V11.4794C122.988 11.579 123.179 11.6572 123.418 11.7141L123.346 14.744C122.105 14.9147 121.253 15 120.792 15C120.33 15 119.908 14.936 119.526 14.808C119.144 14.6942 118.889 14.5733 118.762 14.4453L118.571 14.2532C117.584 14.7511 116.382 15 114.965 15C113.565 15 112.506 14.7155 111.79 14.1466C111.073 13.5633 110.715 12.6316 110.715 11.3514C110.715 10.0712 111.121 9.21765 111.933 8.79085C112.745 8.34992 114.026 8.10099 115.777 8.04409L117.496 7.98008V7.78804C117.496 7.51777 117.162 7.38264 116.494 7.38264C115.045 7.38264 113.596 7.45376 112.148 7.59601L111.36 7.66002L111.241 4.41678C113.342 3.91891 115.26 3.66998 116.995 3.66998C118.81 3.66998 120.218 3.9118 121.221 4.39544C122.304 4.90753 122.845 5.91749 122.845 7.42531ZM116.589 11.7141C116.892 11.7141 117.194 11.6074 117.496 11.3941V10.6046L116.685 10.6473C116.271 10.6757 116.064 10.8606 116.064 11.202C116.064 11.5434 116.239 11.7141 116.589 11.7141Z" fill="#FD815E"/>
<path d="M129.785 14.7227H124.436V3.94736H129.761V4.50213C130.764 3.94736 131.639 3.66998 132.387 3.66998C134.107 3.66998 135.308 4.08961 135.993 4.92887C136.677 5.7539 137.02 7.21905 137.02 9.32435V14.7227H131.671V9.64435C131.671 8.40682 131.385 7.78804 130.812 7.78804L129.785 7.9374V14.7227Z" fill="#FD815E"/>
<path d="M143.923 3.66998C145.022 3.66998 146.239 3.81223 147.577 4.09672L148.245 4.22474L148.078 8.00141C146.438 7.88762 145.34 7.83072 144.783 7.83072C144.226 7.83072 143.844 7.94452 143.637 8.17211C143.446 8.38548 143.35 8.77665 143.35 9.34565C143.35 9.90045 143.446 10.2845 143.637 10.4979C143.844 10.7113 144.202 10.818 144.711 10.818L148.126 10.6686L148.293 14.4026C146.765 14.8009 145.308 15 143.923 15C141.631 15 140.063 14.5804 139.219 13.7412C138.376 12.8877 137.954 11.4083 137.954 9.30295C137.954 7.18349 138.408 5.71834 139.315 4.90753C140.222 4.08249 141.758 3.66998 143.923 3.66998Z" fill="#FD815E"/>
<path d="M154.378 10.7326C154.394 11.2305 154.752 11.4794 155.452 11.4794C157.044 11.4794 158.636 11.4367 160.228 11.3514L161.159 11.2874L161.279 14.3813C159.161 14.7938 157.052 15 154.951 15C152.866 15 151.353 14.5733 150.414 13.7198C149.491 12.8521 149.029 11.4581 149.029 9.53765C149.029 7.60312 149.531 6.14508 150.534 5.16358C151.537 4.16784 153.097 3.66998 155.214 3.66998C157.347 3.66998 158.931 4.07538 159.965 4.88619C161 5.697 161.517 6.94167 161.517 8.62015L161.279 10.7326H154.378ZM156.169 8.12944C156.169 7.71692 156.097 7.42531 155.954 7.25461C155.827 7.08392 155.596 6.99857 155.261 6.99857C154.927 6.99857 154.696 7.08392 154.569 7.25461C154.442 7.42531 154.37 7.71692 154.354 8.12944H156.169Z" fill="#FD815E"/>
</svg>
