<svg width="23" height="23" viewBox="0 0 23 23" fill="none" xmlns="http://www.w3.org/2000/svg">
<path fill-rule="evenodd" clip-rule="evenodd" d="M3.62361 5.91086C4.48088 5.05385 5.64343 4.57241 6.85561 4.57241C8.06779 4.57241 9.23034 5.05385 10.0876 5.91086L11.427 7.24915L12.7665 5.91086C13.1882 5.47424 13.6926 5.12598 14.2503 4.8864C14.8081 4.64681 15.4079 4.52071 16.0149 4.51543C16.6219 4.51016 17.2239 4.62582 17.7857 4.85568C18.3475 5.08553 18.8579 5.42498 19.2871 5.8542C19.7163 6.28342 20.0558 6.79383 20.2856 7.35564C20.5155 7.91746 20.6312 8.51942 20.6259 9.12641C20.6206 9.7334 20.4945 10.3333 20.2549 10.891C20.0153 11.4487 19.6671 11.9532 19.2305 12.3749L11.427 20.1794L3.62361 12.3749C2.7666 11.5176 2.28516 10.355 2.28516 9.14286C2.28516 7.93068 2.7666 6.76813 3.62361 5.91086V5.91086Z" stroke="#F41519" stroke-width="1.22449" stroke-linejoin="round"/>
</svg>
