<svg width="24" height="23" viewBox="0 0 24 23" fill="none" xmlns="http://www.w3.org/2000/svg">
<path d="M8.80022 14.8572L15.6574 8.00005M9.32775 8.52323L9.31427 8.50962M15.1473 14.4026L15.1338 14.389M8.3458 4.17846L7.37637 4.2375C6.11785 4.31414 5.11432 5.31768 5.03767 6.5762L4.97863 7.54563C4.94476 8.10173 4.72574 8.6305 4.35646 9.04767L3.71272 9.77491C2.87701 10.719 2.87701 12.1382 3.71272 13.0823L4.35646 13.8096C4.72574 14.2267 4.94476 14.7555 4.97863 15.3116L5.03767 16.281C5.11432 17.5396 6.11785 18.5431 7.37637 18.6197L8.3458 18.6788C8.9019 18.7127 9.43067 18.9317 9.84784 19.301L10.5751 19.9447C11.5192 20.7804 12.9384 20.7804 13.8825 19.9447L14.6097 19.301C15.0269 18.9317 15.5557 18.7127 16.1118 18.6788L17.0812 18.6197C18.3397 18.5431 19.3433 17.5396 19.4199 16.281L19.479 15.3116C19.5128 14.7555 19.7318 14.2267 20.1011 13.8096L20.7449 13.0823C21.5806 12.1382 21.5806 10.719 20.7449 9.77491L20.1011 9.04767C19.7318 8.6305 19.5128 8.10173 19.479 7.54563L19.4199 6.5762C19.3433 5.31768 18.3397 4.31414 17.0812 4.2375L16.1118 4.17846C15.5557 4.14459 15.0269 3.92557 14.6097 3.55629L13.8825 2.91255C12.9384 2.07684 11.5192 2.07684 10.5751 2.91255L9.84784 3.55629C9.43067 3.92557 8.9019 4.14459 8.3458 4.17846Z" stroke="#F41519" stroke-width="1.22449" stroke-linecap="round"/>
</svg>
