<svg width="24" height="23" viewBox="0 0 24 23" fill="none" xmlns="http://www.w3.org/2000/svg">
<path d="M11.6281 20C16.3619 20 20.1995 16.1624 20.1995 11.4285C20.1995 6.69468 16.3619 2.85712 11.6281 2.85712M11.6281 20C6.8942 20 3.05664 16.1624 3.05664 11.4285C3.05664 6.69468 6.8942 2.85712 11.6281 2.85712M11.6281 20C9.557 20 7.87807 16.1624 7.87807 11.4285C7.87807 6.69468 9.557 2.85712 11.6281 2.85712M11.6281 20C13.6991 20 15.3781 16.1624 15.3781 11.4285C15.3781 6.69468 13.6991 2.85712 11.6281 2.85712M4.66378 15.5947C6.23409 14.6954 8.84305 14.1071 11.796 14.1071C14.878 14.1071 17.5853 14.748 19.1281 15.7143M4.66378 7.26243C6.23409 8.16164 8.84305 8.74997 11.796 8.74997C14.878 8.74997 17.5853 8.10912 19.1281 7.14283" stroke="#F41519" stroke-width="1.22449"/>
</svg>
