<svg width="24" height="23" viewBox="0 0 24 23" fill="none" xmlns="http://www.w3.org/2000/svg">
<path d="M2.27252 20.5714C2.27248 20.9095 2.54656 21.1837 2.8847 21.1837C3.22283 21.1838 3.49697 20.9097 3.49701 20.5715L2.27252 20.5714ZM2.88515 17.1425L3.4974 17.1426L2.88515 17.1425ZM12.599 14.3266C12.9372 14.3266 13.2113 14.0525 13.2113 13.7143C13.2113 13.3762 12.9372 13.1021 12.599 13.1021V14.3266ZM21.1705 15.4694C21.5086 15.4694 21.7827 15.1953 21.7827 14.8572C21.7827 14.5191 21.5086 14.2449 21.1705 14.2449V15.4694ZM16.0276 14.2449C15.6895 14.2449 15.4154 14.5191 15.4154 14.8572C15.4154 15.1953 15.6895 15.4694 16.0276 15.4694V14.2449ZM17.9868 17.4285C17.9868 17.7666 18.2609 18.0407 18.599 18.0407C18.9372 18.0407 19.2113 17.7666 19.2113 17.4285H17.9868ZM19.2113 12.2856C19.2113 11.9475 18.9372 11.6734 18.599 11.6734C18.2609 11.6734 17.9868 11.9475 17.9868 12.2856L19.2113 12.2856ZM13.7011 5.71434C13.7011 7.26975 12.4402 8.53066 10.8848 8.53066V9.75515C13.1164 9.75515 14.9256 7.94602 14.9256 5.71434L13.7011 5.71434ZM10.8848 8.53066C9.32935 8.53066 8.06844 7.26975 8.06844 5.71434H6.84395C6.84395 7.94602 8.65308 9.75515 10.8848 9.75515V8.53066ZM8.06844 5.71434C8.06844 4.15892 9.32935 2.89801 10.8848 2.89801V1.67352C8.65308 1.67352 6.84395 3.48266 6.84395 5.71434H8.06844ZM10.8848 2.89801C12.4402 2.89801 13.7011 4.15892 13.7011 5.71434L14.9256 5.71434C14.9256 3.48266 13.1164 1.67352 10.8848 1.67352V2.89801ZM3.49701 20.5715L3.4974 17.1426L2.27291 17.1425L2.27252 20.5714L3.49701 20.5715ZM6.31372 13.1021C4.08222 13.1021 2.27316 14.9109 2.27291 17.1425L3.4974 17.1426C3.49757 15.5873 4.75843 14.3266 6.31372 14.3266L6.31372 13.1021ZM6.31372 14.3266H12.599V13.1021H6.31372L6.31372 14.3266ZM21.1705 14.2449L18.599 14.2449V15.4694L21.1705 15.4694V14.2449ZM18.599 14.2449H16.0276V15.4694H18.599V14.2449ZM19.2113 17.4285V14.8572L17.9868 14.8572V17.4285H19.2113ZM19.2113 14.8572V12.2856L17.9868 12.2856V14.8572L19.2113 14.8572Z" fill="#F41519"/>
</svg>
