<?xml version="1.0" encoding="utf-8"?><svg xmlns="http://www.w3.org/2000/svg" xmlns:xlink="http://www.w3.org/1999/xlink"><symbol viewBox="0 0 12 16" id="addres" xmlns="http://www.w3.org/2000/svg"><path d="M6 14.4s5.009-4.452 5.009-7.791a5.009 5.009 0 1 0-10.018 0C.991 9.948 6 14.399 6 14.399Z" stroke="#EAEEF2" stroke-width="1.333"/><path d="M7.6 6.4a1.6 1.6 0 1 1-3.2 0 1.6 1.6 0 0 1 3.2 0Z" stroke="#EAEEF2" stroke-width="1.333"/></symbol><symbol viewBox="0 0 23 23" id="fact1" xmlns="http://www.w3.org/2000/svg"><path fill-rule="evenodd" clip-rule="evenodd" d="M3.624 5.91a4.571 4.571 0 0 1 6.464 0l1.339 1.34 1.34-1.34a4.571 4.571 0 1 1 6.463 6.465l-7.803 7.804-7.803-7.804a4.572 4.572 0 0 1 0-6.464Z" stroke="#F41519" stroke-width="1.224" stroke-linejoin="round"/></symbol><symbol viewBox="0 0 24 23" id="fact2" xmlns="http://www.w3.org/2000/svg"><path d="M2.273 20.571a.612.612 0 1 0 1.224 0H2.273Zm.612-3.429h.612-.612Zm9.714-2.815a.612.612 0 1 0 0-1.225v1.225Zm8.572 1.142a.612.612 0 0 0 0-1.224v1.224Zm-5.143-1.224a.612.612 0 0 0 0 1.224v-1.224Zm1.959 3.184a.612.612 0 0 0 1.224 0h-1.224Zm1.224-5.143a.612.612 0 0 0-1.224 0h1.224Zm-5.51-6.572a2.816 2.816 0 0 1-2.816 2.817v1.224a4.04 4.04 0 0 0 4.04-4.04h-1.224Zm-2.816 2.817a2.816 2.816 0 0 1-2.817-2.817H6.844a4.04 4.04 0 0 0 4.04 4.041V8.531ZM8.068 5.714a2.816 2.816 0 0 1 2.817-2.816V1.674a4.04 4.04 0 0 0-4.041 4.04h1.224Zm2.817-2.816A2.816 2.816 0 0 1 13.7 5.714h1.225a4.04 4.04 0 0 0-4.041-4.04v1.224ZM3.497 20.572v-3.43H2.273v3.43h1.224Zm2.817-7.47a4.04 4.04 0 0 0-4.041 4.04h1.224a2.816 2.816 0 0 1 2.817-2.815v-1.225Zm0 1.225h6.285v-1.225H6.314v1.225Zm14.857-.082h-2.572v1.224h2.572v-1.224Zm-2.572 0h-2.571v1.224h2.571v-1.224Zm.612 3.184v-2.572h-1.224v2.572h1.224Zm0-2.572v-2.571h-1.224v2.571h1.224Z"/></symbol><symbol viewBox="0 0 24 23" id="fact3" xmlns="http://www.w3.org/2000/svg"><path d="M11.628 20a8.571 8.571 0 0 0 0-17.143m0 17.143a8.571 8.571 0 0 1 0-17.143m0 17.143c-2.071 0-3.75-3.838-3.75-8.572 0-4.733 1.679-8.57 3.75-8.57m0 17.142c2.071 0 3.75-3.838 3.75-8.572 0-4.733-1.679-8.57-3.75-8.57M4.664 15.594c1.57-.9 4.18-1.488 7.132-1.488 3.082 0 5.79.641 7.332 1.607M4.664 7.262c1.57.9 4.18 1.488 7.132 1.488 3.082 0 5.79-.64 7.332-1.607" stroke="#F41519" stroke-width="1.224"/></symbol><symbol viewBox="0 0 24 23" id="fact4" xmlns="http://www.w3.org/2000/svg"><path d="M8.8 14.857 15.657 8m-6.33.523-.013-.013m5.833 5.893-.013-.014M8.346 4.179l-.97.058a2.495 2.495 0 0 0-2.338 2.34l-.06.969a2.495 2.495 0 0 1-.622 1.502l-.643.727a2.495 2.495 0 0 0 0 3.307l.643.728c.37.417.589.945.623 1.502l.059.969a2.495 2.495 0 0 0 2.338 2.339l.97.059a2.495 2.495 0 0 1 1.502.622l.727.644a2.495 2.495 0 0 0 3.308 0l.727-.644c.417-.37.946-.588 1.502-.622l.97-.06a2.495 2.495 0 0 0 2.338-2.338l.059-.97a2.494 2.494 0 0 1 .622-1.501l.644-.728a2.495 2.495 0 0 0 0-3.307l-.644-.727a2.494 2.494 0 0 1-.622-1.502l-.06-.97a2.495 2.495 0 0 0-2.338-2.338l-.97-.06a2.495 2.495 0 0 1-1.501-.622l-.727-.643a2.495 2.495 0 0 0-3.308 0l-.727.643c-.417.37-.946.589-1.502.622Z" stroke="#F41519" stroke-width="1.224" stroke-linecap="round"/></symbol><symbol viewBox="0 0 24 23" id="fact5" xmlns="http://www.w3.org/2000/svg"><path d="M8.973 5.714h5.714M4.973 4.571v13.715a2.286 2.286 0 0 0 2.285 2.285h9.143a2.286 2.286 0 0 0 2.286-2.285V4.57A2.286 2.286 0 0 0 16.4 2.286H7.258A2.286 2.286 0 0 0 4.973 4.57ZM11.83 16h.08v.073h-.08V16Z" stroke="#F41519" stroke-width="1.224" stroke-linecap="round" stroke-linejoin="round"/></symbol><symbol viewBox="0 0 10 18" id="left" xmlns="http://www.w3.org/2000/svg"><path d="M8.5 16.5 1 9l7.5-7.5" stroke="#89959B" stroke-width="2" stroke-linecap="round" stroke-linejoin="round"/></symbol><symbol viewBox="0 0 14 12" id="mail" xmlns="http://www.w3.org/2000/svg"><path d="m2.125 2.5 4.448 3.193a.728.728 0 0 0 .854 0L11.875 2.5M2.5 10.667h9c.828 0 1.5-.697 1.5-1.556V2.889c0-.86-.672-1.556-1.5-1.556h-9c-.828 0-1.5.697-1.5 1.556V9.11c0 .86.672 1.556 1.5 1.556Z" stroke="#EAEEF2" stroke-width="1.333" stroke-linecap="round" stroke-linejoin="round"/></symbol><symbol viewBox="0 0 14 14" id="phone" xmlns="http://www.w3.org/2000/svg"><path d="M12.776 11.514s-.773.759-.962.981c-.309.33-.672.485-1.148.485-.046 0-.095 0-.14-.004-.907-.057-1.75-.41-2.382-.713a13.557 13.557 0 0 1-4.506-3.522C2.596 7.49 1.9 6.331 1.439 5.088c-.284-.759-.387-1.35-.342-1.907.03-.357.168-.652.422-.905l1.04-1.04c.15-.14.31-.215.465-.215.192 0 .348.115.446.213l.009.009c.186.174.363.353.55.545.094.098.192.195.29.296l.833.832c.324.323.324.621 0 .944-.089.089-.174.177-.263.262-.256.262-.055.061-.32.299-.006.006-.012.009-.016.015-.262.262-.213.518-.158.692l.009.027c.217.524.522 1.018.986 1.606l.003.003C6.236 7.8 7.124 8.607 8.104 9.226c.125.079.254.143.376.204.11.055.213.107.302.161.012.007.024.016.037.022a.663.663 0 0 0 .302.076.653.653 0 0 0 .464-.21l.598-.598c.104-.103.27-.228.462-.228.189 0 .345.119.44.222l.005.006 1.683 1.68c.314.31.003.953.003.953Z" stroke="#EAEEF2" stroke-width="1.333" stroke-linecap="round" stroke-linejoin="round"/></symbol><symbol viewBox="0 0 10 18" id="right" xmlns="http://www.w3.org/2000/svg"><path d="M1 1.5 8.5 9 1 16.5" stroke="#0A0A0A" stroke-width="2" stroke-linecap="round" stroke-linejoin="round"/></symbol><symbol viewBox="0 0 12 12" id="tag-18" xmlns="http://www.w3.org/2000/svg"><path d="M4.08 3.25a3.38 3.38 0 0 0-.927 1.179c-.217.458-.33.96-.33 1.469a8.132 8.132 0 0 1-.822 3.575M6.68 11.4c.802-1.72 1.329-4.725 1.21-5.502-.146-.962-.606-1.73-1.717-1.73-1.273 0-1.66 1.294-1.66 1.843m6.576 3.142c.207-1.072.312-2.163.312-3.255 0-1.405-.55-2.753-1.531-3.746A5.194 5.194 0 0 0 6.172.6a5.194 5.194 0 0 0-3.697 1.552A5.333 5.333 0 0 0 .943 5.898c0 .696-.115 1.388-.343 2.046m2.683 2.675A9.808 9.808 0 0 0 4.4 7.65m5.009.102c.076-.615.113-1.234.112-1.854 0-.9-.353-1.762-.98-2.398a3.326 3.326 0 0 0-2.787-.97M9.06 9.604c-.089.34-.19.681-.295 1.015m-3.859.53c.667-1.205 1.268-3.201 1.268-5.233" stroke="#343434" stroke-linecap="round" stroke-linejoin="round"/></symbol><symbol viewBox="0 0 12 12" id="tag-chat" xmlns="http://www.w3.org/2000/svg"><path d="M9.5 5.25V3a1 1 0 0 0-1-1h-6a1 1 0 0 0-1 1v3.913a1 1 0 0 0 1 1h.783V10L5.37 7.913h.13m2.582 1.283L9.386 10.5V9.196H9.5a1 1 0 0 0 1-1V6.5a1 1 0 0 0-1-1h-3a1 1 0 0 0-1 1v1.696a1 1 0 0 0 1 1h1.582Z" stroke="#343434" stroke-linecap="round" stroke-linejoin="round"/></symbol><symbol viewBox="0 0 12 12" id="tag-exlusive" xmlns="http://www.w3.org/2000/svg"><path d="M4.08 7.8 6 6l1.28.9 1.813-1.8 1.6 1.5M1.2 4.5v5.4h6.4m-2.56-6v-.045M10.8 7.1v-4a1 1 0 0 0-1-1H4.12a1 1 0 0 0-1 1v4a1 1 0 0 0 1 1H9.8a1 1 0 0 0 1-1Z" stroke="#343434" stroke-linecap="round" stroke-linejoin="round"/></symbol><symbol viewBox="0 0 12 12" id="tag-hot" xmlns="http://www.w3.org/2000/svg"><path d="M6.087 10.827V3.845m-.812-.419a.258.258 0 0 0 .24-.066.259.259 0 0 0 .066-.24c-.078-.317-.363-1.378-.657-1.672A.938.938 0 0 0 3.6 1.445a.938.938 0 0 0 .003 1.324c.299.299 1.355.58 1.672.657Zm.887-.306a.258.258 0 0 0 .067.24.259.259 0 0 0 .24.066c.316-.077 1.377-.363 1.67-.657a.938.938 0 0 0 .004-1.324.938.938 0 0 0-1.324.003c-.298.299-.58 1.355-.657 1.672ZM1.549 6.289h8.902a.35.35 0 0 0 .349-.35V4.195a.35.35 0 0 0-.35-.349H1.55a.35.35 0 0 0-.349.35V5.94c0 .192.156.349.349.349Zm8.378 0v4.189a.35.35 0 0 1-.349.349H2.422a.35.35 0 0 1-.35-.35V6.29h7.855Z" stroke="#343434" stroke-linecap="round" stroke-linejoin="round"/></symbol><symbol viewBox="0 0 12 12" id="tag-like" xmlns="http://www.w3.org/2000/svg"><path fill-rule="evenodd" clip-rule="evenodd" d="M1.903 3.103a2.4 2.4 0 0 1 3.394 0L6 3.806l.703-.703a2.4 2.4 0 1 1 3.394 3.394L6 10.594 1.903 6.497a2.4 2.4 0 0 1 0-3.394Z" stroke="#343434" stroke-linejoin="round"/></symbol><symbol viewBox="0 0 12 12" id="tag-real" xmlns="http://www.w3.org/2000/svg"><path d="M1.2 10.8V9A1.8 1.8 0 0 1 3 7.2h3.6m1.5 1.5.6.6 2.1-2.1m-2.1-6c.728.408 1.2 1.062 1.2 1.8s-.472 1.392-1.2 1.8M7.2 3a1.8 1.8 0 1 1-3.6 0 1.8 1.8 0 0 1 3.6 0Z" stroke="#343434" stroke-linecap="round" stroke-linejoin="round"/></symbol><symbol viewBox="0 0 10 10" id="tag-secure" xmlns="http://www.w3.org/2000/svg"><path d="M5 9.5a4.5 4.5 0 0 0 0-9m0 9a4.5 4.5 0 0 1 0-9m0 9C3.913 9.5 3.031 7.485 3.031 5S3.913.5 5 .5m0 9c1.087 0 1.969-2.015 1.969-4.5S6.087.5 5 .5M1.344 7.187c.824-.472 2.194-.78 3.744-.78 1.618 0 3.04.336 3.85.843M1.343 2.813c.824.472 2.194.78 3.744.78 1.618 0 3.04-.336 3.85-.843" stroke="#343434"/></symbol><symbol viewBox="0 0 12 12" id="tag-unlim" xmlns="http://www.w3.org/2000/svg"><path d="m2.889 6.432 2.79-4.383c.268-.422.92-.232.92.268V5.3a.1.1 0 0 0 .1.1h1.94a.5.5 0 0 1 .41.787L6.31 10.1a.5.5 0 0 1-.91-.286V7.3a.1.1 0 0 0-.1-.1H3.312a.5.5 0 0 1-.422-.768Z" stroke="#343434"/></symbol><symbol viewBox="0 0 10 10" id="tag-verified" xmlns="http://www.w3.org/2000/svg"><path d="M4.857 3.5c0 .756-.527 1.293-1.178 1.293-.651 0-1.179-.537-1.179-1.293 0-.756.528-1.207 1.179-1.207.65 0 1.178.451 1.178 1.207ZM6.75 7.843c0 .777-.91 1.407-3 1.407s-3-.63-3-1.407c0-.778 1.343-1.408 3-1.408s3 .63 3 1.408ZM7.5 1l.425.915 1.002.121-.74.687.195.99-.882-.49-.882.49.194-.99-.739-.687 1.002-.12L7.5 1Z" stroke="#343434" stroke-linejoin="round"/></symbol><symbol viewBox="0 0 12 12" id="tag-video" xmlns="http://www.w3.org/2000/svg"><path d="M6.053 4.417H4.678m3.26 2.776 2.325 1.146c.24.146.494.06.487-.246l-.016-4.047c-.02-.333-.217-.423-.506-.27L7.931 4.82M2.625 9.25h4.178c.621 0 1.125-.497 1.125-1.111l.01-1.425-.01-2.853c0-.614-.504-1.111-1.125-1.111H2.625c-.621 0-1.125.497-1.125 1.111V8.14c0 .614.504 1.111 1.125 1.111Z" stroke="#343434" stroke-linecap="round" stroke-linejoin="round"/></symbol><symbol viewBox="0 0 12 12" id="tag-voice" xmlns="http://www.w3.org/2000/svg"><path d="M2.199 5.589A3.841 3.841 0 0 0 6 8.876m0 0A3.841 3.841 0 0 0 9.801 5.59M6 8.876V10.8m0-9.6a1.646 1.646 0 0 0-1.645 1.646V5.04a1.646 1.646 0 0 0 3.291 0V2.846A1.646 1.646 0 0 0 6.001 1.2Z" stroke="#343434" stroke-linecap="round" stroke-linejoin="round"/></symbol><symbol viewBox="0 0 12 12" id="tag-wtf" xmlns="http://www.w3.org/2000/svg"><path d="M9.044 8.432a.5.5 0 1 0 .166.986l-.166-.986Zm-.536-2.74a.5.5 0 1 0 0 1v-1Zm-.462-.55c.738 0 1.336-.6 1.336-1.337h-1c0 .186-.15.336-.336.336v1ZM6.71 3.804c0 .738.598 1.336 1.336 1.336v-1a.336.336 0 0 1-.336-.336h-1Zm1.336-1.336c-.738 0-1.336.598-1.336 1.336h1c0-.186.15-.336.336-.336v-1Zm1.336 1.336c0-.738-.598-1.336-1.336-1.336v1c.186 0 .336.15.336.336h1ZM10 7.582a.705.705 0 0 1-.192.508c-.131.138-.366.275-.764.342l.166.986c.552-.093 1.004-.305 1.322-.638.322-.338.468-.762.468-1.198h-1Zm-1.492-.89c.46 0 .855.13 1.122.317.269.187.37.398.37.573h1c0-.593-.345-1.077-.797-1.393-.455-.318-1.055-.498-1.695-.498v1ZM5.13 3.714c0 .518-.34.8-.685.8v1c.963 0 1.685-.798 1.685-1.8h-1Zm-.685.8c-.346 0-.685-.282-.685-.8h-1c0 1.002.722 1.8 1.685 1.8v-1Zm-.685-.8c0-.259.087-.429.195-.534A.688.688 0 0 1 4.446 3V2c-.444 0-.87.155-1.187.464-.32.311-.498.749-.498 1.25h1ZM4.446 3c.211 0 .378.072.49.18.108.106.195.276.195.535h1c0-.502-.178-.94-.498-1.251A1.685 1.685 0 0 0 4.446 2v1Zm2.59 5.084c0 .156-.078.363-.452.558C6.194 8.846 5.53 9 4.518 9v1c1.09 0 1.936-.163 2.528-.471.61-.318.99-.82.99-1.445h-1ZM4.517 9c-1.013 0-1.676-.154-2.067-.358C2.077 8.447 2 8.24 2 8.084H1c0 .626.38 1.127.989 1.445.592.308 1.438.471 2.529.471V9ZM2 8.084c0-.083.09-.311.596-.549.466-.218 1.145-.367 1.922-.367v-1c-.89 0-1.72.168-2.347.462C1.585 6.905 1 7.385 1 8.084h1Zm2.518-.916c.776 0 1.455.149 1.92.367.506.237.597.466.597.549h1c0-.7-.585-1.179-1.171-1.454-.627-.294-1.457-.462-2.346-.462v1Z"/></symbol></svg>